<?xml version="1.0" standalone="no"?>
<svg xmlns:xlink="http://www.w3.org/1999/xlink" xmlns="http://www.w3.org/2000/svg" height="112" width="112" viewBox="0 0 29 29" role="img"><path fill="#FFFFFF" d="M0,0 h29v29H0z" shape-rendering="crispEdges"/><path fill="#000000" d="M0 0h7v1H0zM10 0h1v1H10zM17 0h1v1H17zM22,0 h7v1H22zM0 1h1v1H0zM6 1h1v1H6zM11 1h2v1H11zM14 1h1v1H14zM16 1h1v1H16zM18 1h1v1H18zM22 1h1v1H22zM28,1 h1v1H28zM0 2h1v1H0zM2 2h3v1H2zM6 2h1v1H6zM9 2h1v1H9zM11 2h1v1H11zM14 2h2v1H14zM19 2h1v1H19zM22 2h1v1H22zM24 2h3v1H24zM28,2 h1v1H28zM0 3h1v1H0zM2 3h3v1H2zM6 3h1v1H6zM9 3h1v1H9zM14 3h4v1H14zM22 3h1v1H22zM24 3h3v1H24zM28,3 h1v1H28zM0 4h1v1H0zM2 4h3v1H2zM6 4h1v1H6zM8 4h4v1H8zM13 4h2v1H13zM16 4h1v1H16zM18 4h3v1H18zM22 4h1v1H22zM24 4h3v1H24zM28,4 h1v1H28zM0 5h1v1H0zM6 5h1v1H6zM10 5h1v1H10zM12 5h1v1H12zM17 5h3v1H17zM22 5h1v1H22zM28,5 h1v1H28zM0 6h7v1H0zM8 6h1v1H8zM10 6h1v1H10zM12 6h1v1H12zM14 6h1v1H14zM16 6h1v1H16zM18 6h1v1H18zM20 6h1v1H20zM22,6 h7v1H22zM8 7h1v1H8zM10 7h1v1H10zM12 7h1v1H12zM14 7h3v1H14zM19 7h2v1H19zM2 8h2v1H2zM6 8h3v1H6zM12 8h4v1H12zM18 8h2v1H18zM21 8h2v1H21zM24 8h1v1H24zM0 9h1v1H0zM2 9h2v1H2zM7 9h2v1H7zM10 9h2v1H10zM18 9h1v1H18zM20 9h5v1H20zM26 9h1v1H26zM28,9 h1v1H28zM3 10h1v1H3zM6 10h1v1H6zM9 10h2v1H9zM13 10h1v1H13zM16 10h2v1H16zM19 10h2v1H19zM22 10h1v1H22zM24 10h2v1H24zM27 10h1v1H27zM0 11h3v1H0zM4 11h1v1H4zM7 11h2v1H7zM10 11h2v1H10zM15 11h1v1H15zM17 11h2v1H17zM20 11h1v1H20zM23 11h3v1H23zM28,11 h1v1H28zM0 12h1v1H0zM2 12h1v1H2zM4 12h4v1H4zM10 12h2v1H10zM13 12h7v1H13zM21 12h1v1H21zM23 12h1v1H23zM26,12 h3v1H26zM0 13h3v1H0zM4 13h2v1H4zM7 13h4v1H7zM12 13h1v1H12zM15 13h2v1H15zM18 13h2v1H18zM22 13h2v1H22zM25 13h2v1H25zM28,13 h1v1H28zM3 14h1v1H3zM6 14h4v1H6zM11 14h1v1H11zM15 14h6v1H15zM22 14h4v1H22zM27,14 h2v1H27zM2 15h1v1H2zM4 15h2v1H4zM7 15h2v1H7zM12 15h1v1H12zM14 15h5v1H14zM21 15h2v1H21zM24 15h2v1H24zM4 16h1v1H4zM6 16h2v1H6zM9 16h1v1H9zM14 16h1v1H14zM17 16h1v1H17zM20 16h2v1H20zM23 16h3v1H23zM27,16 h2v1H27zM3 17h2v1H3zM8 17h1v1H8zM10 17h1v1H10zM13 17h2v1H13zM16 17h1v1H16zM19 17h1v1H19zM26 17h1v1H26zM0 18h1v1H0zM2 18h1v1H2zM5 18h4v1H5zM11 18h4v1H11zM17 18h2v1H17zM22 18h3v1H22zM26 18h1v1H26zM2 19h2v1H2zM8 19h3v1H8zM12 19h2v1H12zM17 19h1v1H17zM21 19h2v1H21zM25 19h3v1H25zM1 20h2v1H1zM4 20h1v1H4zM6 20h1v1H6zM9 20h2v1H9zM12 20h1v1H12zM16,20 h13v1H16zM8 21h5v1H8zM14 21h2v1H14zM17 21h1v1H17zM20 21h1v1H20zM24 21h2v1H24zM27,21 h2v1H27zM0 22h7v1H0zM8 22h1v1H8zM11 22h1v1H11zM13 22h2v1H13zM17 22h1v1H17zM19 22h2v1H19zM22 22h1v1H22zM24 22h1v1H24zM26 22h2v1H26zM0 23h1v1H0zM6 23h1v1H6zM9 23h1v1H9zM11 23h1v1H11zM13 23h2v1H13zM20 23h1v1H20zM24 23h1v1H24zM27,23 h2v1H27zM0 24h1v1H0zM2 24h3v1H2zM6 24h1v1H6zM9 24h2v1H9zM14 24h5v1H14zM20 24h8v1H20zM0 25h1v1H0zM2 25h3v1H2zM6 25h1v1H6zM8 25h2v1H8zM12 25h2v1H12zM15 25h1v1H15zM18 25h2v1H18zM24 25h2v1H24zM27 25h1v1H27zM0 26h1v1H0zM2 26h3v1H2zM6 26h1v1H6zM8 26h2v1H8zM11 26h3v1H11zM17 26h2v1H17zM20 26h1v1H20zM23 26h1v1H23zM28,26 h1v1H28zM0 27h1v1H0zM6 27h1v1H6zM10 27h1v1H10zM12 27h1v1H12zM15 27h2v1H15zM18 27h1v1H18zM20 27h1v1H20zM22 27h1v1H22zM24 27h2v1H24zM27 27h1v1H27zM0 28h7v1H0zM10 28h1v1H10zM15 28h2v1H15zM19 28h3v1H19zM23 28h1v1H23zM27 28h1v1H27z" shape-rendering="crispEdges"/></svg>