<?xml version="1.0" standalone="no"?>
<svg xmlns:xlink="http://www.w3.org/1999/xlink" xmlns="http://www.w3.org/2000/svg" height="112" width="112" viewBox="0 0 29 29" role="img"><path fill="#FFFFFF" d="M0,0 h29v29H0z" shape-rendering="crispEdges"/><path fill="#000000" d="M0 0h7v1H0zM9 0h1v1H9zM12 0h1v1H12zM14 0h1v1H14zM22,0 h7v1H22zM0 1h1v1H0zM6 1h1v1H6zM10 1h2v1H10zM13 1h2v1H13zM16 1h2v1H16zM19 1h1v1H19zM22 1h1v1H22zM28,1 h1v1H28zM0 2h1v1H0zM2 2h3v1H2zM6 2h1v1H6zM8 2h2v1H8zM11 2h1v1H11zM14 2h1v1H14zM16 2h1v1H16zM18 2h3v1H18zM22 2h1v1H22zM24 2h3v1H24zM28,2 h1v1H28zM0 3h1v1H0zM2 3h3v1H2zM6 3h1v1H6zM8 3h2v1H8zM11 3h1v1H11zM15 3h3v1H15zM20 3h1v1H20zM22 3h1v1H22zM24 3h3v1H24zM28,3 h1v1H28zM0 4h1v1H0zM2 4h3v1H2zM6 4h1v1H6zM10 4h3v1H10zM17 4h1v1H17zM19 4h2v1H19zM22 4h1v1H22zM24 4h3v1H24zM28,4 h1v1H28zM0 5h1v1H0zM6 5h1v1H6zM11 5h3v1H11zM15 5h1v1H15zM17 5h1v1H17zM22 5h1v1H22zM28,5 h1v1H28zM0 6h7v1H0zM8 6h1v1H8zM10 6h1v1H10zM12 6h1v1H12zM14 6h1v1H14zM16 6h1v1H16zM18 6h1v1H18zM20 6h1v1H20zM22,6 h7v1H22zM9 7h2v1H9zM12 7h3v1H12zM16 7h1v1H16zM18 7h1v1H18zM20 7h1v1H20zM3 8h2v1H3zM6 8h2v1H6zM9 8h1v1H9zM11 8h3v1H11zM18 8h3v1H18zM25 8h2v1H25zM0 9h1v1H0zM2 9h2v1H2zM7 9h4v1H7zM12 9h2v1H12zM15 9h5v1H15zM23 9h2v1H23zM27 9h1v1H27zM1 10h1v1H1zM3 10h1v1H3zM5 10h3v1H5zM9 10h1v1H9zM15 10h2v1H15zM20 10h3v1H20zM25 10h1v1H25zM0 11h3v1H0zM4 11h1v1H4zM7 11h1v1H7zM13 11h1v1H13zM15 11h1v1H15zM18 11h1v1H18zM20 11h1v1H20zM28,11 h1v1H28zM5 12h5v1H5zM12 12h1v1H12zM14 12h1v1H14zM18 12h5v1H18zM25 12h1v1H25zM27 12h1v1H27zM3 13h3v1H3zM7 13h1v1H7zM11 13h4v1H11zM16 13h1v1H16zM22 13h1v1H22zM24 13h1v1H24zM26 13h1v1H26zM28,13 h1v1H28zM0 14h3v1H0zM6 14h6v1H6zM13 14h1v1H13zM15 14h1v1H15zM19 14h5v1H19zM25 14h1v1H25zM28,14 h1v1H28zM0 15h2v1H0zM5 15h1v1H5zM7 15h2v1H7zM10 15h2v1H10zM14 15h2v1H14zM18 15h1v1H18zM20 15h1v1H20zM24,15 h5v1H24zM1 16h4v1H1zM6 16h1v1H6zM11 16h1v1H11zM17 16h2v1H17zM20 16h2v1H20zM23 16h1v1H23zM25 16h1v1H25zM28,16 h1v1H28zM0 17h3v1H0zM7 17h2v1H7zM10 17h1v1H10zM14 17h1v1H14zM16 17h1v1H16zM19 17h3v1H19zM23 17h4v1H23zM0 18h7v1H0zM8 18h1v1H8zM13 18h1v1H13zM15 18h5v1H15zM24 18h2v1H24zM28,18 h1v1H28zM0 19h2v1H0zM4 19h2v1H4zM7 19h2v1H7zM11 19h1v1H11zM19 19h1v1H19zM21 19h4v1H21zM26 19h1v1H26zM0 20h2v1H0zM3 20h1v1H3zM6 20h2v1H6zM9 20h6v1H9zM18 20h1v1H18zM20 20h8v1H20zM8 21h5v1H8zM15 21h3v1H15zM20 21h1v1H20zM24 21h3v1H24zM0 22h7v1H0zM8 22h1v1H8zM11 22h1v1H11zM15 22h1v1H15zM18 22h3v1H18zM22 22h1v1H22zM24 22h1v1H24zM26 22h1v1H26zM0 23h1v1H0zM6 23h1v1H6zM9 23h4v1H9zM14 23h1v1H14zM17 23h1v1H17zM19 23h2v1H19zM24 23h2v1H24zM27,23 h2v1H27zM0 24h1v1H0zM2 24h3v1H2zM6 24h1v1H6zM8 24h1v1H8zM11 24h1v1H11zM13 24h12v1H13zM27,24 h2v1H27zM0 25h1v1H0zM2 25h3v1H2zM6 25h1v1H6zM8 25h1v1H8zM11 25h4v1H11zM23 25h1v1H23zM27 25h1v1H27zM0 26h1v1H0zM2 26h3v1H2zM6 26h1v1H6zM9 26h1v1H9zM12 26h2v1H12zM17 26h1v1H17zM20 26h2v1H20zM23 26h2v1H23zM27,26 h2v1H27zM0 27h1v1H0zM6 27h1v1H6zM10 27h2v1H10zM13 27h1v1H13zM16 27h2v1H16zM21 27h2v1H21zM24 27h3v1H24zM28,27 h1v1H28zM0 28h7v1H0zM12 28h1v1H12zM14 28h1v1H14zM17 28h8v1H17z" shape-rendering="crispEdges"/></svg>